<svg width="256" height="256" viewBox="0 0 256 256" fill="none" xmlns="http://www.w3.org/2000/svg">
<path d="M70.1245 185.148H85.6963V200.72H70.1245V185.148Z" fill="#FF7800"/>
<path d="M70.1245 140.042H85.6963V155.614H70.1245V140.042Z" fill="#FF7800"/>
<path d="M171.601 55.2798V79.3641H147.516V92.3406H171.601V116.477H184.577V92.3406H208.714V79.3641H184.577V55.2798L171.601 55.2798Z" fill="#322A29"/>
<path d="M147.516 179.543H208.714V192.519H147.516V179.543Z" fill="#322A29"/>
<path d="M208.714 148.451H147.516V161.427H208.714V148.451Z" fill="#322A29"/>
<path d="M47.2861 163.919H108.483V176.895H47.2861V163.919Z" fill="#322A29"/>
<path d="M77.8747 95.0234L96.5447 113.693L105.72 104.518L87.0505 85.8476L105.721 67.1775L96.5449 58.0017L77.8747 76.6719L59.2046 58.0017L50.0288 67.1775L68.6989 85.8476L50.029 104.518L59.2047 113.693L77.8747 95.0234Z" fill="#322A29"/>
</svg>
